<?xml version="1.0" encoding="utf-8"?>
<!-- Generator: Adobe Illustrator 22.1.0, SVG Export Plug-In . SVG Version: 6.00 Build 0)  -->
<svg version="1.1" id="Capa_1" xmlns="http://www.w3.org/2000/svg" xmlns:xlink="http://www.w3.org/1999/xlink" x="0px" y="0px"
	 viewBox="0 0 424.3 83.9" style="enable-background:new 0 0 424.3 83.9;" xml:space="preserve">
<style type="text/css">
	.st0{fill:#FFFFFF;}
	.st1{fill:#ED2939;}
</style>
<g>
	<g>
		<path d="M138.3,49.5c1,0,2-0.1,2.8-0.2s1.6-0.4,2.3-0.9c0.7-0.4,1.3-1,1.7-1.8c0.4-0.8,0.6-1.8,0.6-3.1c0-1.8-0.6-3.1-1.7-3.8
			c-1.1-0.7-2.6-1-4.3-1h-7.4l-2,10.8H138.3z M134.3,72c2.7,0,4.8-0.5,6.2-1.6c1.4-1.1,2.1-2.9,2.1-5.3c0-1.4-0.5-2.6-1.5-3.5
			s-2.2-1.3-3.7-1.3h-9L126.2,72H134.3z M120.1,28.1h25.2c4.7,0,8.4,1,11.1,3.1c2.7,2.1,4,5.1,4,9.1c0,1.3-0.2,2.7-0.6,4.1
			c-0.4,1.4-1,2.8-2,4.1c-0.9,1.4-2.2,2.5-3.9,3.6c-1.7,1-3.7,1.8-6.2,2.2v0.5c2.7,0.5,4.8,1.7,6.6,3.6c1.7,2,2.6,4.5,2.6,7.5
			c0,2.4-0.5,4.5-1.5,6.6c-1,2-2.3,3.8-4.1,5.3c-1.8,1.5-3.9,2.6-6.4,3.5c-2.4,0.8-5.2,1.3-8.1,1.3h-27.2L120.1,28.1z M169.2,28.1
			h38.2l-2.1,11.1H182l-2,10.1h21.9l-2.1,11.1h-21.8l-2.1,11.1h24l-2.1,11.1h-38.8L169.2,28.1z M214.1,28.1h14.8l-8.2,42.8h20.5
			l-2.2,11.7h-35.3L214.1,28.1z M251.8,28.1h14.8l-8.2,42.8h20.5l-2.2,11.7h-35.3L251.8,28.1z M318.1,40.7c-1.6-1.6-3.6-2.5-6.2-2.5
			c-2.9,0-5.3,0.8-7.4,2.5c-2,1.6-3.7,3.7-4.8,6.2c-1.2,2.5-2,5.2-2.5,7.9c-0.5,2.7-0.8,5.3-0.8,7.6c0,3.7,0.8,6.3,2.4,8
			c1.6,1.6,3.7,2.4,6.2,2.4c2.9,0,5.3-0.8,7.4-2.5c2-1.7,3.6-3.8,4.8-6.3c1.2-2.6,2-5.2,2.5-7.9c0.5-2.7,0.8-5.2,0.8-7.5
			C320.5,44.9,319.7,42.3,318.1,40.7 M334,62.4c-1.3,4.1-3.3,7.7-6,11c-2.7,3.2-6,5.8-10,7.7c-4,1.9-8.6,2.9-13.7,2.9
			c-7.3,0-13-1.9-17.2-5.7c-4.2-3.8-6.3-9-6.3-15.6c0-4.3,0.7-8.6,2-12.9s3.3-8.1,6-11.6s6-6.2,10-8.3c4-2,8.6-3.1,13.7-3.1
			c7.2,0,12.9,1.9,17.2,5.8c4.2,3.9,6.4,9.6,6.4,17.3C336,54.1,335.4,58.3,334,62.4 M351.3,39.8H337l2.2-11.7h43.4l-2.2,11.7h-14.3
			l-8.2,42.8h-14.9L351.3,39.8z M404.7,46.2c-0.3-2.8-0.5-5.1-0.5-7h-0.4l-0.4,1c-1,2.6-1.8,4.5-2.4,5.8l-7.3,14.8h12.8L404.7,46.2z
			 M407.9,71.5h-19.8l-6,11.2h-15.9l30.6-54.5h19l8.4,54.5h-15L407.9,71.5z"/>
		<g>
			<polygon class="st0" points="47.7,0 71.5,41.3 95.4,82.6 47.7,82.6 0,82.6 23.8,41.3 			"/>
			<path class="st1" d="M71.5,41.3l-2.3-4c0,4.4-1.1,9.7-4,16.3c-0.6,0.9-2.4,4.9-17.2,1s-14.3-8.3-14.4-9.4
				C37,15,57,19.3,57.5,19.4c0.1,0,0.8,0.3,1.8,0.8L47.7,0L23.8,41.3L0,82.6h37.7c-2.2-1.6-2.6-3.7-2.7-4.2c-0.1-0.6,0-1.7,0.9-1.3
				c3.1,1.4,5.9,2.2,5.9,2.2s2.8,0.7,6.2,1.1c1,0.1,0.5,1.1,0.1,1.6c-0.1,0.1-0.3,0.3-0.6,0.6h0h47.7L71.5,41.3z M61.7,72.5
				c-3.8,4.6-10.5,5.9-18.8,4l-0.7-0.2l-0.7-0.2c-8.1-2.5-13.3-7-14.3-12.8c-1.1-6.3,1.9-11,3.7-12.8c0.3-0.3,0.7-0.4,1.1-0.3
				c0.2,0,0.3,0.1,0.4,0.2c3.3,3.1,8.4,5.9,14.6,7.7c6.2,1.6,12.1,1.7,16.5,0.6c0.1,0,0.3,0,0.5,0c0.4,0.1,0.7,0.4,0.8,0.8
				C65.6,62,65.8,67.6,61.7,72.5z"/>
		</g>
	</g>
</g>
</svg>
